<svg width="146" height="81" viewBox="0 0 146 81" fill="none" xmlns="http://www.w3.org/2000/svg">
<g filter="url(#filter0_i_10_117)">
<g clip-path="url(#clip0_10_117)">
<g clip-path="url(#clip1_10_117)">
<path d="M64.6167 27.971C65.1404 26.4967 65.6714 24.9708 66.2172 23.4744C67.53 19.855 68.9092 16.2651 70.3253 12.6899L67.5964 4.50763C67.3 3.4108 66.7802 2.38692 66.0697 1.50007C65.5953 1.00306 65.0221 0.610588 64.3871 0.347823C63.7521 0.085058 63.0691 -0.0422076 62.382 -0.0258177C61.6956 -0.0368513 61.0143 0.0928594 60.38 0.355305C59.7457 0.61775 59.172 1.00736 58.6943 1.50007C58.0076 2.39467 57.5061 3.41711 57.2193 4.50763L50.0946 33.647C49.8173 34.4955 49.6004 35.3626 49.4456 36.2418C49.4323 36.9274 49.5603 37.6085 49.8217 38.2426C50.0831 38.8766 50.4722 39.4502 50.9649 39.9275C51.4425 40.4199 52.0163 40.8089 52.6507 41.0701C53.2852 41.3314 53.9666 41.4593 54.6526 41.446C55.3356 41.4664 56.0155 41.346 56.6499 41.0923C57.2844 40.8387 57.8598 40.4572 58.3403 39.9717C59.0368 39.0749 59.5391 38.0432 59.8154 36.942L63.0532 23.3343L64.6167 27.971Z" fill="#662D91"/>
<path d="M90.8878 14.9304C88.6654 20.5573 86.5585 26.226 84.5671 31.9364L85.7472 36.8826C86.0296 37.9815 86.5313 39.0121 87.2223 39.9123C87.7057 40.3939 88.2816 40.7729 88.9153 41.0262C89.5491 41.2796 90.2276 41.4022 90.91 41.3866C92.2792 41.3866 93.5924 40.8429 94.5606 39.8752C95.5288 38.9076 96.0727 37.5951 96.0727 36.2266C95.9179 35.3474 95.701 34.4803 95.4237 33.6318L90.8878 14.9304Z" fill="#D4145A"/>
<path d="M83.6083 27.919C83.9845 26.8575 84.3459 25.796 84.7442 24.7345C86.4011 20.174 88.1417 15.6479 89.9659 11.1563L88.336 4.52196C88.0395 3.42513 87.5198 2.40125 86.8093 1.5144C86.3408 1.01575 85.7736 0.619959 85.1438 0.352191C84.514 0.0844217 83.8354 -0.0494707 83.1511 -0.0409768C82.4647 -0.0520103 81.7833 0.0777004 81.1491 0.340146C80.5148 0.602591 79.9411 0.9922 79.4634 1.48492C78.7766 2.37951 78.2752 3.40195 77.9883 4.49247L72.8256 20.0389L71.439 16.0288C69.4722 21.1348 67.5866 26.2776 65.7821 31.4573L67.5964 36.89C67.5908 36.9168 67.5908 36.9444 67.5964 36.9711C67.7512 38.0286 68.2425 39.0082 68.9977 39.7649C69.4827 40.2815 70.069 40.6927 70.7199 40.973C71.3708 41.2533 72.0725 41.3966 72.7813 41.394C74.0319 41.4068 75.2446 40.9655 76.1941 40.152C77.1436 39.3386 77.7655 38.2083 77.9441 36.9711C77.9496 36.9444 77.9496 36.9168 77.9441 36.89L82.4799 23.2823L83.6083 27.919Z" fill="#93278F"/>
</g>
</g>
<g filter="url(#filter1_d_10_117)">
<path d="M14.1733 58.5824H15.0593V46.9196H13.9557L9.5413 53.7138L5.07251 46.9196C4.63729 46.9196 4.43522 46.9196 4 46.9196V58.5824H4.90153V48.2163L9.40918 55.0494H9.70451L14.1733 48.2163V58.5824ZM25.4968 54.1875C25.4968 56.6023 23.9114 57.9301 21.7664 57.9301C19.6136 57.9301 17.997 56.4004 17.997 54.1875H17.1577C17.1577 56.8974 19.1084 58.7687 21.7664 58.7687C24.4165 58.7687 26.3828 57.0527 26.3828 54.1875V46.9196H21.028V47.7038H25.4968V54.1875ZM35.5536 50.3516V52.1531C34.8696 50.8719 33.5173 50.2507 32.1884 50.2507C29.8879 50.2507 27.9994 51.9512 27.9994 54.467C27.9994 56.9828 29.8879 58.7144 32.1884 58.7144C33.5173 58.7144 34.7531 58.1165 35.5536 56.8353V58.5824H36.3696C36.3696 55.8336 36.3696 53.1004 36.3696 50.3516H35.5536ZM32.1884 51.0349C36.7737 51.0349 36.7737 57.9146 32.1884 57.9146C30.3154 57.9146 28.8154 56.5324 28.8154 54.467C28.8154 52.4015 30.3154 51.0349 32.1884 51.0349ZM38.5923 46.9196V58.5824H39.3928V54.5524L43.8072 58.5824H44.8409V58.5358L40.1933 54.2341L44.359 50.3827V50.3516H43.2787L39.3928 53.9545V46.9196H38.5923ZM56.2343 58.5824H57.1126V46.9196H56.0167L51.5946 53.7138L47.1258 46.9196C46.6906 46.9196 46.4963 46.9196 46.061 46.9196V58.5824H46.9626V48.2163L51.4625 55.0494H51.7656L56.2343 48.2163V58.5824ZM66.804 50.3516V52.1531C66.1201 50.8719 64.7678 50.2507 63.4388 50.2507C61.1384 50.2507 59.2498 51.9512 59.2498 54.467C59.2498 56.9828 61.1384 58.7144 63.4388 58.7144C64.7678 58.7144 66.0035 58.1165 66.804 56.8353V58.5824H67.62C67.62 55.8336 67.62 53.1004 67.62 50.3516H66.804ZM63.4388 51.0349C68.0242 51.0349 68.0242 57.9146 63.4388 57.9146C61.5658 57.9146 60.0658 56.5324 60.0658 54.467C60.0658 52.4015 61.5658 51.0349 63.4388 51.0349ZM70.5733 47.9523V50.3516H68.8247V51.0349H70.5733V56.051C70.5733 57.6661 71.1407 58.6988 72.8893 58.6988C73.41 58.6988 73.923 58.5358 74.4437 58.2795L74.1561 57.6195C73.7442 57.8137 73.2935 57.9457 72.8893 57.9457C71.607 57.9457 71.3738 57.1692 71.3738 56.051V51.0349H74.1717V50.3516H71.3738V47.8669L70.5733 47.9523ZM79.7752 58.6988C81.0964 58.6988 82.5264 58.1631 83.3269 57.1148L82.744 56.6489C82.13 57.4642 80.8632 57.8991 79.7752 57.8991C78.0809 57.8991 76.5965 56.7809 76.4255 54.8475H83.8476C84.1662 51.6328 82.0989 50.2196 79.7752 50.2196C77.4592 50.2196 75.5939 51.9978 75.5939 54.467C75.5939 57.0838 77.4592 58.6988 79.7752 58.6988ZM76.4255 54.1331C76.612 52.1142 78.0809 50.965 79.7752 50.965C81.7647 50.965 83.0937 52.0987 83.117 54.1331H76.4255ZM98.8239 58.5824V53.6517C98.8239 51.6018 97.3861 50.1886 95.3732 50.1886C94.1064 50.1886 92.8163 50.8719 92.3189 52.2152C91.837 50.7554 90.5158 50.1886 89.2645 50.1886C88.1998 50.1886 87.1506 50.6389 86.5833 51.7182L86.5677 50.3516H85.7983V58.5824H86.6144V53.6983C86.6144 52.1142 87.6791 50.965 89.249 50.965C90.8189 50.965 91.8992 52.1142 91.8992 53.6983V58.5824H92.7152V53.6983C92.7152 52.1142 93.8033 50.9495 95.3732 50.9495C96.9353 50.9495 98.0078 52.0677 98.0078 53.6517V58.5824H98.8239ZM108.228 50.3516V52.1531C107.544 50.8719 106.192 50.2507 104.855 50.2507C102.554 50.2507 100.674 51.9512 100.674 54.467C100.674 56.9828 102.554 58.7144 104.855 58.7144C106.192 58.7144 107.427 58.1165 108.228 56.8353V58.5824H109.044C109.044 55.8336 109.044 53.1004 109.044 50.3516H108.228ZM104.855 51.0349C109.448 51.0349 109.448 57.9146 104.855 57.9146C102.99 57.9146 101.49 56.5324 101.49 54.467C101.49 52.4015 102.99 51.0349 104.855 51.0349ZM111.997 47.9523V50.3516H110.248V51.0349H111.997V56.051C111.997 57.6661 112.564 58.6988 114.313 58.6988C114.834 58.6988 115.347 58.5358 115.867 58.2795L115.58 57.6195C115.16 57.8137 114.717 57.9457 114.313 57.9457C113.031 57.9457 112.798 57.1692 112.798 56.051V51.0349H115.595V50.3516H112.798V47.8669L111.997 47.9523ZM123.818 50.3516L121.751 55.1969L120.803 57.5962L119.831 55.2202L117.919 50.3516H117.033L120.336 58.4814L118.813 62.0144H119.683L124.704 50.3516H123.818ZM126.289 46.9196V58.5824H127.09V54.5524L131.504 58.5824H132.538V58.5358L127.89 54.2341L132.056 50.3827V50.3516H130.976L127.09 53.9545V46.9196H126.289ZM140.698 50.3516V52.1531C140.014 50.8719 138.662 50.2507 137.325 50.2507C135.025 50.2507 133.144 51.9512 133.144 54.467C133.144 56.9828 135.025 58.7144 137.325 58.7144C138.662 58.7144 139.898 58.1165 140.698 56.8353V58.5824H141.514C141.514 55.8336 141.514 53.1004 141.514 50.3516H140.698ZM137.325 51.0349C141.911 51.0349 141.911 57.9146 137.325 57.9146C135.46 57.9146 133.96 56.5324 133.96 54.467C133.96 52.4015 135.46 51.0349 137.325 51.0349Z" fill="#F7F3E3"/>
</g>
<g filter="url(#filter2_d_10_117)">
<path d="M48.9821 69.447H7.88089V70.2235H48.9821V69.447Z" fill="#F7F3E3"/>
</g>
<g filter="url(#filter3_d_10_117)">
<path d="M137.625 69.447H96.524V70.2235H137.625V69.447Z" fill="#F7F3E3"/>
</g>
<g filter="url(#filter4_d_10_117)">
<path d="M54.734 70.4054H52.8921L53.1874 69.4736C53.2962 69.1319 53.4051 68.7903 53.4983 68.4486C53.5993 68.1147 53.7004 67.7653 53.7936 67.4081H53.8247C53.9258 67.7653 54.0268 68.1147 54.1278 68.4486C54.2289 68.7903 54.3299 69.1319 54.4465 69.4736L54.734 70.4054ZM54.9283 71.0266L55.5034 72.8901H56.335L54.2677 66.7792H53.3895L51.3222 72.8901H52.1149L52.6978 71.0266H54.9283ZM57.2055 66.7792V72.8901H58.7676C59.2339 72.8901 59.638 72.8203 59.9955 72.6805C60.3453 72.5407 60.6484 72.3388 60.8893 72.0748C61.1302 71.8108 61.3168 71.4847 61.4411 71.1042C61.5655 70.7237 61.6276 70.2889 61.6276 69.8075C61.6276 68.8291 61.3789 68.0837 60.8893 67.5634C60.3997 67.0354 59.6769 66.7792 58.7365 66.7792H57.2055ZM58.6743 72.2534H57.9749V67.4081H58.6743C59.3893 67.4081 59.9256 67.6178 60.2831 68.0293C60.6406 68.4331 60.8194 69.031 60.8194 69.8075C60.8194 70.584 60.6406 71.1819 60.2831 71.6167C59.9256 72.0438 59.3893 72.2534 58.6743 72.2534ZM65.4514 70.4054H63.6094L63.897 69.4736C64.0136 69.1319 64.1146 68.7903 64.2156 68.4486C64.3167 68.1147 64.4099 67.7653 64.5032 67.4081H64.5421C64.6431 67.7653 64.7441 68.1147 64.8452 68.4486C64.9384 68.7903 65.0472 69.1319 65.156 69.4736L65.4514 70.4054ZM65.6457 71.0266L66.2208 72.8901H67.0524L64.9851 66.7792H64.1068L62.0318 72.8901H62.8245L63.4151 71.0266H65.6457ZM67.9228 66.7792V72.8901H68.6378V69.528C68.6378 69.2562 68.6223 68.9534 68.5989 68.6195C68.5756 68.2933 68.5523 67.9905 68.5368 67.7187H68.5756L69.0575 69.0776L70.2388 72.2767H70.6818L71.8553 69.0776L72.3527 67.7187H72.3838C72.3605 67.9905 72.3372 68.2933 72.3139 68.6195C72.2983 68.9534 72.2828 69.2562 72.2828 69.528V72.8901H73.0211V66.7792H72.104L70.9305 70.056L70.503 71.3061H70.4642L70.0212 70.056L68.8321 66.7792H67.9228ZM76.5806 66.7792V72.8901H77.3578V70.9489L78.4147 69.7143L80.2411 72.8901H81.1038L78.8966 69.1086L80.8085 66.7792H79.9302L77.3889 69.8463H77.3578V66.7792H76.5806ZM84.0338 72.9988C84.4224 72.9988 84.7721 72.929 85.0907 72.7814C85.4171 72.6261 85.6892 72.4165 85.9223 72.1369C86.1555 71.8652 86.3342 71.5313 86.4663 71.1353C86.5907 70.7393 86.6529 70.2967 86.6529 69.8075C86.6529 69.3183 86.5907 68.8835 86.4663 68.4952C86.3342 68.107 86.1555 67.7809 85.9223 67.5091C85.6892 67.2373 85.4171 67.0277 85.0907 66.8879C84.7721 66.7404 84.4224 66.6627 84.0338 66.6627C83.6529 66.6627 83.2954 66.7404 82.9768 66.8801C82.6581 67.0199 82.3784 67.2296 82.153 67.5013C81.9198 67.7731 81.7411 68.0992 81.6167 68.4875C81.4846 68.8757 81.4224 69.3183 81.4224 69.8075C81.4224 70.2967 81.4846 70.7393 81.6167 71.1353C81.7411 71.5313 81.9198 71.8652 82.153 72.1369C82.3784 72.4165 82.6581 72.6261 82.9768 72.7814C83.2954 72.929 83.6529 72.9988 84.0338 72.9988ZM84.0338 72.3233C83.7617 72.3233 83.5131 72.2612 83.2954 72.1447C83.0701 72.0282 82.8835 71.8574 82.7281 71.64C82.5649 71.4148 82.4405 71.1508 82.3551 70.848C82.2696 70.5374 82.2229 70.188 82.2229 69.8075C82.2229 69.427 82.2696 69.0854 82.3551 68.7825C82.4405 68.4797 82.5649 68.2157 82.7281 68.006C82.8835 67.7964 83.0701 67.6333 83.2954 67.5169C83.5131 67.4004 83.7617 67.346 84.0338 67.346C84.3058 67.346 84.5545 67.4004 84.7799 67.5169C84.9975 67.6333 85.184 67.7964 85.3472 68.006C85.5026 68.2157 85.627 68.4797 85.7125 68.7825C85.798 69.0854 85.8446 69.427 85.8446 69.8075C85.8446 70.188 85.798 70.5374 85.7125 70.848C85.627 71.1508 85.5026 71.4148 85.3472 71.64C85.184 71.8574 84.9975 72.0282 84.7799 72.1447C84.5545 72.2612 84.3058 72.3233 84.0338 72.3233ZM87.9741 66.7792V72.8901H88.7435V66.7792H87.9741ZM90.4455 71.5546L89.9792 72.0981C90.2434 72.3777 90.5621 72.5951 90.9274 72.7581C91.2926 72.9212 91.689 72.9988 92.1242 72.9988C92.4429 72.9988 92.7304 72.96 92.9869 72.8668C93.2434 72.7737 93.461 72.6494 93.6397 72.4941C93.8185 72.3388 93.9584 72.1525 94.0594 71.9428C94.1527 71.7254 94.1993 71.5002 94.1993 71.2595C94.1993 71.0343 94.1682 70.8402 94.106 70.6694C94.0361 70.4986 93.9506 70.351 93.834 70.219C93.7252 70.0948 93.5931 69.9783 93.4377 69.8851C93.2822 69.792 93.119 69.7065 92.9403 69.6289L92.0776 69.2562C91.9532 69.2096 91.8289 69.1552 91.7123 69.0931C91.5957 69.031 91.4869 68.9689 91.3859 68.8912C91.2849 68.8136 91.2071 68.7204 91.145 68.6195C91.0906 68.5185 91.0595 68.3865 91.0595 68.239C91.0595 67.9595 91.1605 67.742 91.3703 67.5867C91.5802 67.4237 91.8522 67.346 92.1942 67.346C92.4817 67.346 92.7382 67.4004 92.9636 67.5013C93.189 67.6023 93.3988 67.742 93.5853 67.9206L94.005 67.4237C93.7874 67.1985 93.5231 67.0121 93.2123 66.8724C92.9014 66.7326 92.5594 66.6627 92.1942 66.6627C91.9144 66.6627 91.6579 66.7093 91.4248 66.787C91.1916 66.8646 90.9895 66.9811 90.8186 67.1286C90.6476 67.2761 90.5154 67.447 90.4222 67.6411C90.3212 67.843 90.2745 68.0604 90.2745 68.2856C90.2745 68.5108 90.3134 68.7049 90.3833 68.8757C90.461 69.0465 90.5543 69.1941 90.6787 69.3183C90.7952 69.4425 90.9274 69.5512 91.075 69.6367C91.2227 69.7221 91.3703 69.7997 91.518 69.8618L92.3885 70.2423C92.5361 70.3122 92.6682 70.3743 92.7926 70.4364C92.9169 70.4986 93.0257 70.5684 93.1112 70.6461C93.2045 70.7237 93.2744 70.8169 93.3288 70.9256C93.3833 71.0343 93.4066 71.1663 93.4066 71.3216C93.4066 71.6245 93.2978 71.8652 93.0724 72.0438C92.847 72.2301 92.5361 72.3233 92.132 72.3233C91.8133 72.3233 91.5102 72.2534 91.2149 72.1136C90.9196 71.9739 90.6631 71.7875 90.4455 71.5546Z" fill="#F7F3E3"/>
</g>
</g>
<defs>
<filter id="filter0_i_10_117" x="4" y="0" width="137.514" height="76.9988" filterUnits="userSpaceOnUse" color-interpolation-filters="sRGB">
<feFlood flood-opacity="0" result="BackgroundImageFix"/>
<feBlend mode="normal" in="SourceGraphic" in2="BackgroundImageFix" result="shape"/>
<feColorMatrix in="SourceAlpha" type="matrix" values="0 0 0 0 0 0 0 0 0 0 0 0 0 0 0 0 0 0 127 0" result="hardAlpha"/>
<feOffset dy="4"/>
<feGaussianBlur stdDeviation="2"/>
<feComposite in2="hardAlpha" operator="arithmetic" k2="-1" k3="1"/>
<feColorMatrix type="matrix" values="0 0 0 0 0 0 0 0 0 0 0 0 0 0 0 0 0 0 0.25 0"/>
<feBlend mode="normal" in2="shape" result="effect1_innerShadow_10_117"/>
</filter>
<filter id="filter1_d_10_117" x="0" y="46.9196" width="145.514" height="23.0949" filterUnits="userSpaceOnUse" color-interpolation-filters="sRGB">
<feFlood flood-opacity="0" result="BackgroundImageFix"/>
<feColorMatrix in="SourceAlpha" type="matrix" values="0 0 0 0 0 0 0 0 0 0 0 0 0 0 0 0 0 0 127 0" result="hardAlpha"/>
<feOffset dy="4"/>
<feGaussianBlur stdDeviation="2"/>
<feComposite in2="hardAlpha" operator="out"/>
<feColorMatrix type="matrix" values="0 0 0 0 0 0 0 0 0 0 0 0 0 0 0 0 0 0 0.25 0"/>
<feBlend mode="normal" in2="BackgroundImageFix" result="effect1_dropShadow_10_117"/>
<feBlend mode="normal" in="SourceGraphic" in2="effect1_dropShadow_10_117" result="shape"/>
</filter>
<filter id="filter2_d_10_117" x="3.88089" y="69.447" width="49.1012" height="8.77649" filterUnits="userSpaceOnUse" color-interpolation-filters="sRGB">
<feFlood flood-opacity="0" result="BackgroundImageFix"/>
<feColorMatrix in="SourceAlpha" type="matrix" values="0 0 0 0 0 0 0 0 0 0 0 0 0 0 0 0 0 0 127 0" result="hardAlpha"/>
<feOffset dy="4"/>
<feGaussianBlur stdDeviation="2"/>
<feComposite in2="hardAlpha" operator="out"/>
<feColorMatrix type="matrix" values="0 0 0 0 0 0 0 0 0 0 0 0 0 0 0 0 0 0 0.25 0"/>
<feBlend mode="normal" in2="BackgroundImageFix" result="effect1_dropShadow_10_117"/>
<feBlend mode="normal" in="SourceGraphic" in2="effect1_dropShadow_10_117" result="shape"/>
</filter>
<filter id="filter3_d_10_117" x="92.524" y="69.447" width="49.1012" height="8.77649" filterUnits="userSpaceOnUse" color-interpolation-filters="sRGB">
<feFlood flood-opacity="0" result="BackgroundImageFix"/>
<feColorMatrix in="SourceAlpha" type="matrix" values="0 0 0 0 0 0 0 0 0 0 0 0 0 0 0 0 0 0 127 0" result="hardAlpha"/>
<feOffset dy="4"/>
<feGaussianBlur stdDeviation="2"/>
<feComposite in2="hardAlpha" operator="out"/>
<feColorMatrix type="matrix" values="0 0 0 0 0 0 0 0 0 0 0 0 0 0 0 0 0 0 0.25 0"/>
<feBlend mode="normal" in2="BackgroundImageFix" result="effect1_dropShadow_10_117"/>
<feBlend mode="normal" in="SourceGraphic" in2="effect1_dropShadow_10_117" result="shape"/>
</filter>
<filter id="filter4_d_10_117" x="47.3222" y="66.6627" width="50.8771" height="14.3361" filterUnits="userSpaceOnUse" color-interpolation-filters="sRGB">
<feFlood flood-opacity="0" result="BackgroundImageFix"/>
<feColorMatrix in="SourceAlpha" type="matrix" values="0 0 0 0 0 0 0 0 0 0 0 0 0 0 0 0 0 0 127 0" result="hardAlpha"/>
<feOffset dy="4"/>
<feGaussianBlur stdDeviation="2"/>
<feComposite in2="hardAlpha" operator="out"/>
<feColorMatrix type="matrix" values="0 0 0 0 0 0 0 0 0 0 0 0 0 0 0 0 0 0 0.25 0"/>
<feBlend mode="normal" in2="BackgroundImageFix" result="effect1_dropShadow_10_117"/>
<feBlend mode="normal" in="SourceGraphic" in2="effect1_dropShadow_10_117" result="shape"/>
</filter>
<clipPath id="clip0_10_117">
<rect width="46.6309" height="41.4767" fill="white" transform="translate(49.4432)"/>
</clipPath>
<clipPath id="clip1_10_117">
<rect width="46.628" height="41.4894" fill="white" transform="translate(49.4447 -0.041626)"/>
</clipPath>
</defs>
</svg>
